<?xml version="1.0" encoding="utf-8"?>
<!-- Generator: Adobe Illustrator 24.1.3, SVG Export Plug-In . SVG Version: 6.00 Build 0)  -->
<svg version="1.1" xmlns="http://www.w3.org/2000/svg" xmlns:xlink="http://www.w3.org/1999/xlink" x="0px" y="0px"
	 viewBox="0 0 512 512" style="enable-background:new 0 0 512 512;" xml:space="preserve">
<style type="text/css">
	.st0{fill:#FFFFFF;}
</style>
<g id="Voxel_Logo">
	<polygon class="st0" points="318.4,299.77 314.92,305.69 354.75,326.87 354.69,323.09 357.77,320.71 	"/>
	
		<ellipse transform="matrix(0.3827 -0.9239 0.9239 0.3827 -66.0105 655.958)" class="st0" cx="457.85" cy="377.37" rx="22.62" ry="22.62"/>
	
		<ellipse transform="matrix(0.7071 -0.7071 0.7071 0.7071 -108.0752 256.5674)" class="st0" cx="255.67" cy="258.74" rx="22.16" ry="22.16"/>
	<path class="st0" d="M430.87,367.34c0.81-2.17,1.84-4.22,3.12-6.11l-24.16-12.85l-3.17,6.08L430.87,367.34z"/>
	<path class="st0" d="M285.27,256.49l-2.22,1.28c0.01,0.33,0.05,0.65,0.05,0.98c0,11.23-6.78,20.89-16.46,25.13v1.96v94.99
		l101.42-171.38L285.27,256.49z"/>
	<path class="st0" d="M237.34,238.38c4.86-4.38,11.28-7.07,18.32-7.07c7.32,0,13.97,2.9,18.89,7.59l0.96-0.55l79.13-45.57
		l-195.46,0.37l77.02,44.57L237.34,238.38z"/>
	<path class="st0" d="M228.23,258.74c0-0.61,0.05-1.2,0.09-1.8l-2.01-1.17l-80.06-46.33l99.81,171.38v-94.79v-1.63
		C235.66,280.5,228.23,270.48,228.23,258.74z"/>
	<path class="st0" d="M253.16,87.75h6.86V53.26c-1.12,0.16-2.26,0.27-3.43,0.27c-1.17,0-2.31-0.11-3.43-0.27V87.75z"/>
	<circle class="st0" cx="256.59" cy="28.86" r="20.31"/>
	<path class="st0" d="M363.18,430.35l93.02-178.21l-0.1,96.5c0.58-0.04,1.16-0.09,1.76-0.09c1.74,0,3.44,0.18,5.1,0.48l0.21-204.91
		l0-1.98L280.13,36.22c-0.7,2.22-1.71,4.31-2.97,6.21l84.24,48.75c-30.28,0-175.75,0-210.15,0l84.73-48.8
		c-1.26-1.91-2.26-3.99-2.95-6.22L49.77,141.72l-0.25,238.67L256.1,499.94l180.03-103.69c-1.51-1.73-2.81-3.63-3.87-5.69
		L363.18,430.35z M259.78,392.46V285.83c-0.62,0.09-1.25,0.18-1.89,0.23c-0.73,0.07-1.47,0.11-2.22,0.11
		c-0.93,0-1.84-0.05-2.75-0.14v102.55v101.59L59.89,378.47l139.18-73.61l-3.51-5.9L56.39,372.56l0.23-222.91l82.42,47.7l0,0
		l90.7,52.49c0.17-0.49,0.36-0.98,0.55-1.45c0.19-0.45,0.38-0.9,0.59-1.34c0.1-0.22,0.21-0.44,0.32-0.66
		c0.19-0.38,0.39-0.76,0.6-1.13c0.3-0.54,0.62-1.07,0.96-1.58c0,0,0,0,0-0.01l0,0v0l-87.24-50.49h0l-85.48-49.47l87.26-50.26
		l107.42,72.51l109.61-73.07l88.52,51.23L278.94,244.29c0.5,0.8,0.95,1.62,1.37,2.47l0,0c0.13,0.26,0.26,0.52,0.38,0.79
		c0.06,0.14,0.12,0.28,0.18,0.41c0.08,0.18,0.16,0.36,0.24,0.55c0.27,0.66,0.53,1.33,0.74,2.02L456.3,150.06l-0.1,99.13
		l-98.05,75.56l1.78,107.48l-100.14,57.68V392.46z"/>
	<polygon class="st0" points="257.82,167.81 254.73,170.09 251.64,167.81 251.64,189.53 254.74,189.54 254.74,189.54 254.82,189.54 
		254.91,189.54 254.91,189.54 257.82,189.53 	"/>
</g>
<g id="Repere">
</g>
</svg>
